<svg id="Capa_1" enable-background="new 0 0 512 512" height="512" viewBox="0 0 512 512" width="512" xmlns="http://www.w3.org/2000/svg" fill="#d14848"><g><path d="m482 66h-140c-16.542 0-30 13.458-30 30v30h-302c-5.522 0-10 4.477-10 10v240c0 5.523 4.478 10 10 10h136v40h-36c-5.522 0-10 4.477-10 10s4.478 10 10 10h172c5.522 0 10-4.477 10-10s-4.478-10-10-10h-36v-40h66v50c0 5.523 4.478 10 10 10h180c5.522 0 10-4.477 10-10v-340c0-16.542-13.458-30-30-30zm-462 80h352v220h-352zm206 280h-60v-40h60zm266 0h-160v-40h50c5.522 0 10-4.477 10-10v-240c0-5.523-4.478-10-10-10h-50v-30c0-5.514 4.486-10 10-10h140c5.514 0 10 4.486 10 10z"/><path d="m442 306c-16.542 0-30 13.458-30 30s13.458 30 30 30 30-13.458 30-30-13.458-30-30-30z"/><circle cx="442" cy="136" r="10"/><circle cx="442" cy="196" r="10"/><circle cx="442" cy="256" r="10"/></g></svg>